<svg width="48" height="48" viewBox="0 0 48 48" fill="none" xmlns="http://www.w3.org/2000/svg">
<g clip-path="url(#clip0_31810_8094)">
<path d="M19.9996 38C19.5323 38.0009 19.0794 37.8382 18.7196 37.54C18.5171 37.3721 18.3497 37.1659 18.227 36.9332C18.1043 36.7005 18.0287 36.4459 18.0045 36.1839C17.9804 35.922 18.0082 35.6578 18.0862 35.4066C18.1643 35.1554 18.2912 34.9221 18.4596 34.72L27.4196 24L18.7796 13.26C18.6135 13.0554 18.4894 12.82 18.4146 12.5674C18.3397 12.3147 18.3155 12.0497 18.3434 11.7876C18.3713 11.5256 18.4507 11.2716 18.577 11.0403C18.7034 10.8091 18.8742 10.605 19.0796 10.44C19.2865 10.2579 19.5289 10.1206 19.7914 10.0366C20.0539 9.95264 20.331 9.92383 20.6052 9.952C20.8793 9.98017 21.1448 10.0647 21.3847 10.2003C21.6247 10.3359 21.834 10.5197 21.9996 10.74L31.6596 22.74C31.9538 23.0979 32.1146 23.5468 32.1146 24.01C32.1146 24.4733 31.9538 24.9221 31.6596 25.28L21.6596 37.28C21.459 37.522 21.2041 37.7134 20.9157 37.8385C20.6273 37.9636 20.3134 38.0189 19.9996 38Z" fill="white"/>
</g>
<defs>
<clipPath id="clip0_31810_8094">
<rect width="48" height="48" fill="white"/>
</clipPath>
</defs>
</svg>
